<svg id="Laag_1" data-name="Laag 1" xmlns="http://www.w3.org/2000/svg" viewBox="0 0 400 200"><title>Naamloos-5</title><path d="M100.1,49.26h15.95v87h26.24v14.5H100.1Z"/><path d="M147.95,73.61c0-16.24,8.55-25.52,24.21-25.52s24.21,9.28,24.21,25.52v52.77c0,16.24-8.55,25.52-24.21,25.52s-24.21-9.28-24.21-25.52ZM163.9,127.4c0,7.25,3.19,10,8.26,10s8.26-2.76,8.26-10V72.6c0-7.25-3.19-10-8.26-10s-8.26,2.76-8.26,10Z"/><path d="M230.59,94.2h22.33v32.19c0,16.24-8.12,25.52-23.78,25.52s-23.78-9.28-23.78-25.52V73.61c0-16.24,8.12-25.52,23.78-25.52s23.78,9.28,23.78,25.52v9.86H237.84V72.6c0-7.25-3.19-10-8.26-10s-8.26,2.76-8.26,10v54.8c0,7.25,3.19,9.86,8.26,9.86s8.26-2.61,8.26-9.86V108.7h-7.25Z"/><path d="M261.91,73.61c0-16.24,8.55-25.52,24.21-25.52s24.21,9.28,24.21,25.52v52.77c0,16.24-8.55,25.52-24.21,25.52s-24.21-9.28-24.21-25.52Zm15.95,53.79c0,7.25,3.19,10,8.26,10s8.26-2.76,8.26-10V72.6c0-7.25-3.19-10-8.26-10s-8.26,2.76-8.26,10Z"/></svg>