<?xml version="1.0" encoding="utf-8"?>
<!-- Generator: Adobe Illustrator 23.0.1, SVG Export Plug-In . SVG Version: 6.00 Build 0)  -->
<svg version="1.1" id="Layer_1" xmlns="http://www.w3.org/2000/svg" xmlns:xlink="http://www.w3.org/1999/xlink" x="0px" y="0px"
	 width="3000px" height="1023.2px" viewBox="0 0 3000 1023.2" style="enable-background:new 0 0 3000 1023.2;" xml:space="preserve"
	>
<g id="itZCNI.tif">
	<g>
		<path style="fill:#FFFFFF;" d="M0,219.4C0,146.7,0,73.9,0,0c999.7,0,1998.3,0,2999.8,0c0,29.9,0.8,59.8-0.7,89.6
			c-0.3,5.8-10.4,10.5-14.5,16.7c-38.6,57.6-64.9,118.9-60.7,190.6c2,33.9,0.3,68-1.3,102c-0.6,11.8-4.3,24.4-10.1,34.6
			c-3.6,6.3-14.5,12.9-21,11.9c-6.2-1-15.1-11.2-15.6-18c-2.1-26.8-1.4-53.8-1.6-80.8c-0.1-7.1,0.5-14.1,0.4-21.2
			c-0.2-13.7-4.3-25-18.3-30.9c-14.6-6.2-28.4-2.2-36.4,8.7c-12.7,17.2-24.7,36.1-31.8,56.1c-14.7,41.2-12.6,84.7-10.2,127.8
			c4.3,77.6,9.8,155.5-5.8,232.4c-4.3,21.4-15.2,41.8-25.1,61.7c-3.1,6.2-12.6,9.1-19.1,13.5c-3.2-6.6-8.5-13-9.2-19.8
			c-2.9-28.7-7.4-57.7-6.1-86.3c5.5-116.7,13.1-233.3,19.7-350c0.9-16,1.7-32.2,0.5-48.1c-1.6-20-13.4-31.5-29.7-31.9
			c-18-0.4-32.4,12.3-35.2,31.4c-10.2,69.3-20,138.6-30.4,207.8c-4.7,30.8-12.2,60.9-35.6,83.6c-5.4,5.2-15,11-20.8,9.4
			c-5.2-1.4-11.2-12.6-10.9-19.3c0.7-18.4,1.1-37.9,7.5-54.8c44.9-118.4,36.2-239.6,21.7-361.3c-1.7-14.6-7.1-26.7-23.7-28
			c-14.6-1.1-29.4,14.2-30.2,31.7c-1.9,40.4-2.5,80.9-4.3,121.4c-6,136.1-18.5,271.7-39.5,406.3c-3.5,22.5-11.8,44.5-19.7,66.1
			c-2.1,5.8-11,9-16.7,13.5c-3.2-6.3-9.3-12.6-9-18.8c2.6-68.7,4.3-137.4,9.7-205.9c11.1-140.8,31-281.1,24.9-422.9
			c-0.6-13,3-28.8-14.5-33.8c-10.7-3.1-23.3,13.2-27.3,32.5c-16.4,79-4.2,157.3,4.3,235.9c2.3,21.5-1.7,44.2-6.5,65.5
			c-1.6,7-14.9,11.3-22.8,16.9c-4.8-8.5-12.9-16.7-13.6-25.4c-1.6-21,1-42.3,0.6-63.5c-0.6-37.2-2-74.4-3.5-111.6
			c-0.5-12.5-5.9-24.3-20-23.1c-13.3,1.2-17.6,12.7-17.7,25.8c-0.2,22.5-1.1,45-1.9,67.4c-0.2,5.1,0.4,11.1-2,15.1
			c-3.3,5.4-9.2,9.2-14,13.7c-3.6-5.2-10.1-10.4-10.2-15.7c-0.7-26.3,0-52.6,0.6-79c0.4-20.5,1.6-41.1,1.8-61.6
			c0.1-5.6-0.5-12.6-3.7-16.5c-5.3-6.4-13.3-15.4-19.6-15c-6.3,0.4-15.3,10.1-17.1,17.3c-3.1,12.1-1.7,25.4-1.6,38.1
			c0.1,7.7,2,15.4,1.9,23c-0.1,12.2,0.4,27.6-16,27.9c-14.3,0.3-16.3-13.6-17.9-25.5c-1.6-12-4-24-6-35.9c-2.7-0.2-5.3-0.4-8-0.6
			c-2.9,9-7.1,17.8-8.5,27c-8.1,51.3-15.1,102.7-23.5,154c-1.5,9.1-6.5,18.2-11.6,26.1c-2.6,4-11.5,8.9-13.4,7.6
			c-4.4-3.2-8.5-9.7-9-15.1c-1.1-13.4,0.8-27-0.4-40.4c-0.5-5.8-5.9-11.1-9-16.7c-5.1,4.2-11.7,7.6-14.8,13
			c-2.9,5.1-2.7,12.4-2.9,18.7c-1.4,45.6-1.8,91.2-4.1,136.8c-1.8,35.6-11,69.3-35.1,103.3c-6.5-10.4-12.9-17.2-15.6-25.3
			c-12.1-35.7-2.8-71.3,3-106.5c12.7-76.7,15-153.3-1.9-229.7c-4.1-18.7-12.4-35.8-33.5-40.5c-26.3-5.9-49.1,10.6-51.4,40.8
			c-5.1,65.9-10.1,131.9-10.8,197.9c-0.7,57.1,6.5,114.2,6.3,171.3c-0.1,25.5-8.6,51.4-16.1,76.3c-2.8,9.3-12.4,18.2-21.1,23.9
			c-21.2,14-44.4,5-51.3-19.5c-10-35.2-4-70.5,4.9-104.5c17.3-66.2,20.3-133.1,16.1-200.8c-1.9-31.4-4-62.8-7.2-94
			c-1.6-16.2-8.2-31.3-26.9-32.7c-18.6-1.4-32.2,9.4-38.1,26.6c-4,11.8-5.7,24.9-6.1,37.5c-1.9,54.5-2.5,109.1-4.5,163.6
			c-0.4,11.3-2.5,23.6-7.6,33.5c-4,7.6-14.4,17.1-21.3,16.5c-7.3-0.6-17-10.7-19.9-18.8c-4.2-11.7-3.8-25.2-4.6-38
			c-2.9-49.9-5.3-99.9-8.5-149.8c-0.5-7.4-3.2-15.7-7.5-21.5c-4.9-6.6-13.4-15.6-19.4-14.9c-7.9,0.9-17.5,8.7-21.5,16.1
			c-4.6,8.4-4.6,19.7-5.3,29.8c-1.7,25.6-0.7,51.6-4.5,76.8c-2.5,16.5-9.8,33.2-18.7,47.4c-4.1,6.6-17.4,7.4-26.5,10.9
			c-2.9-7.7-9.1-15.9-8.1-23c6.1-44.4,14.8-88.5,20.5-133c2.3-18.1,0.2-37-1.6-55.4c-0.7-7.2-4.3-16.1-9.6-20.3
			c-7.5-5.9-18.2-11.6-26.8-10.6c-7,0.8-16.6,10.6-18.6,18.1c-12.8,46.9-29.7,92.9-30.1,142.6c-0.5,58.4-2.7,116.7-3,175
			c-0.1,28.7,5.5,57.7,2.8,86.1c-1.9,20.2-12.4,40-21.3,59c-2.6,5.6-14.5,11.7-19.4,10c-6.7-2.4-15-11.9-15.3-18.7
			c-2-43-2.8-86-2.5-129.1c0.8-105.1,17.7-208.4,35.4-311.6c3.2-18.8,2.2-38.4,2.2-57.6c0-10.6-2.5-22.3-16-22
			c-13.9,0.3-19.2,10.8-19.9,23.9c-1,18-0.8,36.1-3.7,53.8c-1.7,10-6.5,21.2-13.5,28.2c-13.6,13.5-31.5,6.3-32.8-13
			c-1.1-15.9,1-32,2.2-48c1.9-24.7-4-36.4-20.6-39.5c-18.3-3.4-31.6,7.2-37.2,29.9c-29.5,120.4-42.5,242.7-39.7,366.5
			c1.1,48.7,8.8,97.3,9.6,146c0.4,23-7.1,46.6-14.2,69c-2.4,7.5-15.6,17.8-21.6,16.5c-8.3-1.8-18.7-12.4-20.8-21
			c-13.9-55.4-15.6-112.1-9.5-168.5c8.7-80.4,22.2-160.3,29.5-240.8c4.7-50.9,2.1-102.5,2.3-153.8c0-6.9-0.9-14.7-4.2-20.6
			c-3-5.4-9.7-11.7-15-11.8c-5.2-0.2-13.8,6-15.2,11c-3.6,12.1-5.2,25.1-5.3,37.8c-0.8,100.9-1,201.8-1.4,302.7c0,1.3,0,2.6,0,3.9
			c0,28.5-8.5,43.1-26.1,45c-17.8,1.9-38.1-14.3-39.5-39.4c-1.8-34.2,0.4-68.9,4.4-103c8-69.4,18.3-138.5,27.6-207.8
			c0.7-5.1,0.4-10.3,0.2-15.4c-0.4-13.3-1.6-28.7-17.9-29.3c-15.5-0.5-25.5,11.2-27.2,27.3c-3,29.3-6.1,58.7-7.7,88.1
			c-1.1,19.2,1.9,38.7,0.1,57.8c-0.8,8.7-7.3,19.9-14.5,23.7c-4.2,2.2-18.5-6-22-12.8c-6.5-12.7-8.8-27.6-12.1-41.8
			c-1.6-6.8,0-14.6-2.5-20.9c-2-5-8.1-8.3-12.3-12.4c-3.2,4.3-9,8.5-9.3,13c-0.7,12.1,0,24.4,1.7,36.4c3.2,21.6,9.4,42.9,10.9,64.5
			c1,14.8-1.1,31-6.5,44.7c-6.7,17.2-8.4,33.1-2.5,50.4c8,23.7,7,46.8-6.9,68.4c-8.4,13-19,24.9-35.9,19.7
			c-16.3-5-17.5-21.2-17.2-35.3c0.4-18.6,3.2-37.1,4.5-55.7c4.6-69.1,1.6-137.6-22.3-203.4c-4.9-13.6-12-27.2-21.3-38.1
			c-15.6-18.5-37.4-14.5-44.4,8.8c-6.1,20.6-9.6,43-9.1,64.4c3,109.8,4.9,219.8,12.7,329.3c6.3,88.9,20.5,177.2,31,265.8
			c1,8.3,0.9,16.7,0.7,25c-0.5,25.8-12.2,43.2-31.4,47.2c-17.9,3.7-44.2-9.1-51.9-29.2c-6.8-17.7-11.9-37-12.6-55.8
			c-5.9-178.5-10.6-357.1-15.9-535.7c-0.3-9.5-1-19.7-4.7-28.2c-2.5-5.6-10.7-8.6-16.4-12.8c-4.3,6.4-8.9,12.6-12.6,19.3
			c-1,1.8,1.7,5.4,0.8,7.4c-3.2,7.6-5.6,19-11.3,21.1c-6.3,2.4-20-1.2-23.2-6.6c-6.5-10.8-9.8-24.4-11.2-37.2
			c-1.1-10.4-1-21.8-13-21.2c-6.7,0.3-17.8,10.1-18.5,16.5c-3.1,27.3-3.2,54.9-4.1,82.4c-0.2,5.1,1.2,10.3,0.9,15.3
			c-1.4,22.7-10.4,35-25.3,35.2c-15.5,0.2-33-17.7-33.9-36.3c-1.8-35.3-2.7-70.6-4.3-105.9c-0.3-6.1-2-12.1-7.6-19.1
			c-2.2,3.9-3.9,8.1-6.6,11.5c-3.9,4.8-8.5,9-12.9,13.5c-5.1-5.1-11.6-9.5-14.9-15.7c-2.4-4.5-0.5-11.3-1-17.1
			c-3.1-41.6-5.7-83.3-10.1-124.8c-0.7-7-8.1-16.5-14.6-18.7c-4.4-1.5-15.8,6.6-18,12.7c-5,13.4-7.8,28.2-8.5,42.5
			c-1,19.8,1.2,39.8,1.3,59.7c0,6.3-0.3,13.8-3.7,18.5c-4.1,5.8-11.5,9.3-17.5,13.8c-2.4-7.1-7-14.4-6.6-21.3
			c1-13.3,7.5-30.3-11.3-32.8c-19-2.6-16.4,17-17.4,28.3c-5.1,60.7,3.9,120.4,15.2,179.9c5.2,27.6,7.9,55.7,10.3,83.8
			c0.8,9.9-0.4,21.5-5,30c-5.2,9.5-15.3,16.4-23.3,24.4c-4.5-9.6-12.8-19.1-13.1-28.9c-3.3-105.4-11.5-210.3-29.1-314.4
			c-1.7-10.1-3.7-20.4-7.8-29.7c-6.2-14.2-17.1-17.9-31.3-9.7c-14.2,8.1-22.4,4.9-26.8-10.7c-1.5-5.5-1.7-11.4-2.1-17.1
			c-2.1-25.3-20-35.1-41.7-21.7c-15.9,9.8-28.2,23.9-28.2,43.4c-0.1,52.5,1.7,105.1,1.8,157.6c0.1,25.5-0.7,51.1-3.8,76.4
			c-0.9,7.2-11.3,13.2-17.4,19.7c-3.9-8-10.5-15.7-11.3-24c-2.5-26.8-2.6-53.8-4.3-80.7c-0.4-6.9-1.7-14.8-5.6-19.9
			c-2.1-2.7-14.4-2.5-15.6-0.2c-3.7,7-6.5,15.8-5.8,23.6c4.1,44.6,9.8,89.1,13.8,133.8c3.8,42,6.6,84.2,9,126.4
			c0.4,7.3-1.4,16.7-5.9,21.8c-6.7,7.5-16.6,16.2-25.3,16.4c-5.8,0.1-16.2-13.2-17.1-21.3c-3.9-32.4-6.6-65.2-6.5-97.8
			c0.1-62.3,2.3-124.6,3.6-187c0-1.9,1-4.3,0.3-5.7c-5.1-9.5-10.5-18.8-15.8-28.2c-5.9,8.8-12.3,17.3-17.5,26.5
			c-2.4,4.3-0.9,11.2-3.8,14.6c-6.2,7.3-14.2,13.1-21.5,19.5c-5.7-7.5-13.6-14.2-16.5-22.7c-3.2-9.4,0-20.8-2.9-30.4
			c-2.3-7.4-9.7-13.1-14.9-19.6c-5.6,4.9-15.3,9.2-16.1,14.8c-3.9,26.4-7.6,53.3-7.2,79.9c1.8,100.1,22.3,197.4,46.6,294.2
			c6,23.8,5.5,49.7,4.7,74.5c-0.5,14.2-5.3,29.6-12.5,41.8c-4.9,8.4-17.6,17.1-26.4,16.7c-6.2-0.2-15.4-14.6-17.3-23.9
			c-5.5-27-8.9-54.5-11.4-82c-13.3-145.2-26.1-290.4-39.1-435.6c-0.2-1.9,0.3-4.2-0.5-5.7c-4.7-8.9-8.9-24.4-14.7-25
			c-13.5-1.5-14.7,12.4-16.1,23.6c-0.7,5.6-1.7,12.3-5.2,16c-4.2,4.4-12,9.3-16.9,8.1c-4.5-1.1-9.7-9.7-10.1-15.3
			c-1.2-17.9,0.4-36-0.4-53.9c-0.6-12.4,0.2-28.9-18.3-28.1c-17,0.7-21,15.4-20.8,29.6c0.7,44.9,2.8,89.8,3.1,134.7
			c0.1,19.8-1.2,39.9-5,59.2c-1.5,7.4-11.7,18.3-17.9,18.3c-8.2-0.1-20.7-7.7-23.4-15c-5.4-14.6-7.3-31.2-7.4-47
			c-0.3-35.9-0.2-72,2.4-107.7C68.4,247.5,56.2,230.3,0,219.4z"/>
	</g>
</g>
</svg>
