<?xml version="1.0" encoding="utf-8"?>
<!-- Generator: Adobe Illustrator 23.0.1, SVG Export Plug-In . SVG Version: 6.00 Build 0)  -->
<svg version="1.1" id="Layer_1" xmlns="http://www.w3.org/2000/svg" xmlns:xlink="http://www.w3.org/1999/xlink" x="0px" y="0px"
	 width="3000px" height="335.9px" viewBox="0 0 3000 335.9" style="enable-background:new 0 0 3000 335.9;" xml:space="preserve">
<path style="fill:#FFFFFF;" d="M3000,335.9H0V152.7c0,0,168.4-143,270.2,0c35.8,50.3,387.6-168,798.5-19
	c77.1,28,340.5,130.7,645.7,74.7c97.7-17.9,265.8-30.1,448.9-38.3c33.5-1.5,97.3-64.1,97.3-64.1s69.3,93.9,100.5,102.5
	c350.3,96.2,638.8-55.6,638.8-55.6V335.9z"/>
<path style="fill:#FFFFFF;" d="M2294,33.7c0,18.6-33.7,58.8-33.7,58.8s-33.7-40.2-33.7-58.8S2241.6,0,2260.2,0
	C2278.9,0,2294,15.1,2294,33.7z"/>
</svg>
